<svg id="Capa_1" data-name="Capa 1" xmlns="http://www.w3.org/2000/svg" viewBox="0 0 198 402.21"><defs><style>.cls-1{fill:#efd19d;}.cls-2,.cls-8{fill:#b6dcd0;}.cls-2{stroke:#011512;}.cls-10,.cls-11,.cls-12,.cls-2,.cls-3,.cls-4,.cls-5,.cls-6,.cls-7,.cls-8,.cls-9{stroke-miterlimit:10;}.cls-10,.cls-11,.cls-2,.cls-3,.cls-4,.cls-5,.cls-6,.cls-7,.cls-8,.cls-9{stroke-width:0.5px;}.cls-3,.cls-9{fill:#85c27c;}.cls-10,.cls-11,.cls-12,.cls-3,.cls-4,.cls-5,.cls-6,.cls-7,.cls-8,.cls-9{stroke:#010101;}.cls-4{fill:#00a5cc;}.cls-5{fill:#4e3c31;}.cls-6{fill:#2f6e64;}.cls-12,.cls-7{fill:#010101;}.cls-11,.cls-9{isolation:isolate;}.cls-9{opacity:0.47;}.cls-10{fill:#50bfd0;}.cls-11{fill:none;opacity:0.69;}</style></defs><path class="cls-1" d="M9.9,12.34a18.82,18.82,0,0,0-2.3,1.6,3.11,3.11,0,0,0-.9,2.6,1.93,1.93,0,0,0,1.9,1.7"/><path class="cls-1" d="M8.6,10.24c-1.9,1.1-3.8,2.5-4.3,4.8a4.62,4.62,0,0,0,.6,3.8,4.27,4.27,0,0,0,3.7,2,2.87,2.87,0,0,0,1.8-.7,2.27,2.27,0,0,0,.7-1.8,2.57,2.57,0,0,0-.7-1.8,2.41,2.41,0,0,0-1.8-.7H8.4c.2,0,.4.1.7.1-.2,0-.3-.1-.5-.1l.6.3a1.38,1.38,0,0,1-.4-.3c.2.1.3.3.5.4a1.38,1.38,0,0,1-.3-.4c.1.2.3.3.4.5-.1-.2-.2-.3-.3-.5l.3.6a.9.9,0,0,1-.1-.5c0,.2.1.4.1.7v-.7c0,.2-.1.4-.1.7a1.45,1.45,0,0,1,.2-.7l-.3.6a2.18,2.18,0,0,1,.5-.8c-.1.2-.3.3-.4.5l.9-.9c-.2.1-.3.3-.5.4a14,14,0,0,1,1.6-1,2.4,2.4,0,0,0,1.1-1.5,2.14,2.14,0,0,0-.3-1.9,2.51,2.51,0,0,0-3.5-1.1Z"/><path class="cls-1" d="M36.4,29c51.9,4.3,105,8.5,155.5-4.4"/><path class="cls-1" d="M36.4,31.54c20.4,1.7,40.9,3.4,61.3,4s40.7.2,60.8-2.2a260.86,260.86,0,0,0,34-6.3c3.1-.8,1.8-5.6-1.3-4.8-19.5,5-39.5,7.4-59.6,8.3a562.74,562.74,0,0,1-60.9-1.3c-11.5-.8-22.9-1.7-34.3-2.6a2.54,2.54,0,0,0-2.5,2.5,2.46,2.46,0,0,0,2.5,2.4Z"/><path class="cls-1" d="M15.4,31.64c58.8,5.8,118.8,10.6,176.5-2.3"/><path class="cls-1" d="M15.4,34.14c23.1,2.3,46.2,4.4,69.4,5.4a471.53,471.53,0,0,0,69.3-1.6,335.08,335.08,0,0,0,38.5-6.1c3.1-.7,1.8-5.5-1.3-4.8-22.4,5-45.3,7.3-68.2,7.9s-45.9-.5-68.8-2.2c-13-1-25.9-2.2-38.9-3.5a2.45,2.45,0,1,0,0,4.9Z"/><path class="cls-1" d="M13.3,35.54a467.61,467.61,0,0,0,178.4-2.8"/><path class="cls-1" d="M12.6,37.94a473.23,473.23,0,0,0,70.3,7.2,471,471,0,0,0,70.2-3.4c13.2-1.6,26.3-3.8,39.2-6.6,3.1-.7,1.8-5.5-1.3-4.8a453.64,453.64,0,0,1-68.7,9.2,460.66,460.66,0,0,1-69.5-1.2c-13-1.2-26-2.9-38.8-5.2a2.71,2.71,0,0,0-3.1,1.7,2.48,2.48,0,0,0,1.7,3.1Z"/><path class="cls-1" d="M13.5,40.94A407.42,407.42,0,0,0,191,35.84"/><path class="cls-1" d="M12.9,43.34A412.77,412.77,0,0,0,83,50.74,411.64,411.64,0,0,0,153.1,46a390.16,390.16,0,0,0,38.7-7.9c3.1-.8,1.8-5.6-1.3-4.8a395.13,395.13,0,0,1-68.4,11.2,400.92,400.92,0,0,1-69.3-.6c-12.9-1.2-25.7-3.1-38.5-5.5a2.61,2.61,0,0,0-3.1,1.7,2.43,2.43,0,0,0,1.7,3.2Z"/><path class="cls-1" d="M8.7,45.14c12.8,5.4,26.9,6.9,40.8,7.7a502.68,502.68,0,0,0,142.6-11.7"/><path class="cls-1" d="M8,47.54c10.8,4.5,22.5,6.3,34.1,7.3,12.1,1,24.3,1.4,36.4,1.4A500.34,500.34,0,0,0,151.9,51q20.55-3,40.8-7.5c3.1-.7,1.8-5.5-1.3-4.8a508.8,508.8,0,0,1-71.7,11,505.44,505.44,0,0,1-72.8.5c-12.8-.9-25.7-2.5-37.6-7.5a2.61,2.61,0,0,0-3.1,1.7A2.78,2.78,0,0,0,8,47.54Z"/><path class="cls-1" d="M192.2,37a54.14,54.14,0,0,0-13.1,2.5"/><path class="cls-1" d="M192.2,34.54a52.72,52.72,0,0,0-13.7,2.6,2.53,2.53,0,0,0-1.7,3.1,2.48,2.48,0,0,0,3.1,1.7,48.49,48.49,0,0,1,6.3-1.6l1.6-.3c.2,0,.5-.1.7-.1h.5l3.3-.3a2.54,2.54,0,0,0,2.5-2.5,2.72,2.72,0,0,0-2.6-2.6Z"/><path class="cls-1" d="M192.8,42.74c-12.5,4.3-25.7,5.8-38.8,7.5-11.4,1.5-22.7,3.2-34,4.8"/><path class="cls-1" d="M192.1,40.24a151.32,151.32,0,0,1-27.3,6c-9.6,1.3-19.2,2.5-28.8,3.9-5.6.8-11.2,1.6-16.8,2.5a2.48,2.48,0,0,0-1.7,3.1,2.56,2.56,0,0,0,3.1,1.7c9.8-1.4,19.5-2.9,29.3-4.2,9.4-1.3,18.8-2.3,28.1-4.1A107.39,107.39,0,0,0,193.5,45a2.48,2.48,0,0,0,1.7-3.1,2.56,2.56,0,0,0-3.1-1.7Z"/><path class="cls-1" d="M179.6,9.94a23.55,23.55,0,0,1,7.9,3.6c1,.7,1.9,1.7,1.7,2.8s-1.3,1.5-2.2,1.8c-1.6.6-3.1,1.3-4.7,1.9"/><path class="cls-1" d="M178.9,12.34a21.72,21.72,0,0,1,2.4.7c.2.1.3.1.5.2s.9.3.2.1c.3.1.7.3,1,.4.7.4,1.5.8,2.2,1.2a8.65,8.65,0,0,1,1,.7c.4.3-.4-.4,0,0,.1.1.3.2.4.4.4.4-.2-.4,0,0,0,.1.1.1.1.2s.1.1-.1-.3c0,.1.1.2.1.3,0-.4-.1-.5-.1-.3v-.3c-.1.3,0,.2.1-.2a.35.35,0,0,1-.1.2c.1-.1.2-.2.2-.3l-.2.2c.3-.2.4-.3.2-.1a3,3,0,0,1-.8.4c-.2.1-.1,0,.3-.1-.1,0-.2.1-.3.1a1.42,1.42,0,0,1-.6.2,6.94,6.94,0,0,1-1.3.5c-.9.4-1.8.7-2.6,1.1a3.27,3.27,0,0,0-1.5,1.1,3.08,3.08,0,0,0-.3,1.9c.4,1.2,1.8,2.3,3.1,1.7,1.6-.6,3.1-1.3,4.7-1.9s3.3-1.6,3.9-3.5a5,5,0,0,0-2-5.2,21.86,21.86,0,0,0-4.1-2.6,32.38,32.38,0,0,0-5.2-1.9,2.56,2.56,0,0,0-3.1,1.7,3.13,3.13,0,0,0,1.9,3.4Z"/><path class="cls-1" d="M192.6,16.14a2.94,2.94,0,0,1-2.3-.9"/><path class="cls-1" d="M192.6,13.64h0a2,2,0,0,1-.7-.1l.6.3a2.09,2.09,0,0,1-.6-.4c.2.1.3.3.5.4l-.3-.3a2.18,2.18,0,0,0-.8-.5,1.64,1.64,0,0,0-1-.2,3.55,3.55,0,0,0-1,.2,2.18,2.18,0,0,0-.8.5c-.1.2-.3.3-.4.5a2.77,2.77,0,0,0-.3,1.3c0,.2.1.4.1.7a2.38,2.38,0,0,0,.6,1.1,3.92,3.92,0,0,0,1,.8,6.12,6.12,0,0,0,1.2.5c.2.1.4.1.6.2a5.7,5.7,0,0,0,1.3.1,3.55,3.55,0,0,0,1-.2,2.1,2.1,0,0,0,1.3-1.3,1.64,1.64,0,0,0,.2-1c0-.2-.1-.4-.1-.7a2.38,2.38,0,0,0-.6-1.1c-.2-.1-.3-.3-.5-.4a2.2,2.2,0,0,0-1.3-.4Z"/><path class="cls-1" d="M182,18.74a5.25,5.25,0,0,0-3,2.3"/><path class="cls-1" d="M181.3,16.34a9.38,9.38,0,0,0-1.5.6,6,6,0,0,0-1.3.9,2.34,2.34,0,0,0-.7.7,6,6,0,0,0-.9,1.3,1.61,1.61,0,0,0-.3.9,1.7,1.7,0,0,0,0,1,3.55,3.55,0,0,0,.4.9,1.34,1.34,0,0,0,.7.6,2.59,2.59,0,0,0,1.9.3,2.83,2.83,0,0,0,1.5-1.1,2.09,2.09,0,0,1,.4-.6c-.1.2-.3.3-.4.5l.9-.9c-.2.1-.3.3-.5.4a2.38,2.38,0,0,1,1.1-.6l-.6.3a1.42,1.42,0,0,1,.6-.2,2.83,2.83,0,0,0,1.5-1.1,1.61,1.61,0,0,0,.3-.9,1.7,1.7,0,0,0,0-1,2.83,2.83,0,0,0-1.1-1.5,1.92,1.92,0,0,0-2-.5Z"/><path class="cls-1" d="M10.2,361c2.2.8,3.8,2.6,5.5,4.1A46.54,46.54,0,0,0,36,376.24"/><path class="cls-1" d="M9.6,363.44c2.1.8,3.7,2.9,5.3,4.3a58.18,58.18,0,0,0,6.3,4.8,47.86,47.86,0,0,0,14.1,6.1c3.1.8,4.4-4,1.3-4.8a47.4,47.4,0,0,1-13.6-6,49,49,0,0,1-5.7-4.5,19.75,19.75,0,0,0-6.5-4.6,2.53,2.53,0,0,0-3.1,1.7,2.69,2.69,0,0,0,1.9,3Z"/><path class="cls-1" d="M38.4,377.34A132.24,132.24,0,0,0,90.9,385"/><path class="cls-1" d="M37.7,379.84a135.75,135.75,0,0,0,53.2,7.8c3.2-.2,3.2-5.2,0-5A131,131,0,0,1,39,375a2.53,2.53,0,0,0-3.1,1.7,2.78,2.78,0,0,0,1.8,3.1Z"/><path class="cls-1" d="M55.1,388.44a116.94,116.94,0,0,1,35.4,2.1"/><path class="cls-1" d="M55.1,390.94a118.87,118.87,0,0,1,34.7,2c3.1.7,4.5-4.2,1.3-4.8a121.4,121.4,0,0,0-36.1-2.2,2.61,2.61,0,0,0-2.5,2.5,2.78,2.78,0,0,0,2.6,2.5Z"/><path class="cls-1" d="M10.8,375.94c4,6,11,9.2,17.8,11.6a153.55,153.55,0,0,0,62,8.3"/><path class="cls-1" d="M8.7,377.24c6,8.9,17.1,12.4,26.8,15.2a154.71,154.71,0,0,0,35,6.1,148.24,148.24,0,0,0,20-.1,2.61,2.61,0,0,0,2.5-2.5,2.48,2.48,0,0,0-2.5-2.5,152,152,0,0,1-33.7-1.3c-10.7-1.7-21.7-4.3-31.7-8.5-4.6-2-9.3-4.6-12.2-8.9-1.7-2.7-6-.2-4.2,2.5Z"/><path class="cls-1" d="M91.4,385.64a281.85,281.85,0,0,0,44-2.7c14.5-2.3,28.9-6.3,42-12.9"/><path class="cls-1" d="M91.4,388.14c23.4.1,47.1-1.3,69.4-8.7a130.52,130.52,0,0,0,17.8-7.3c2.9-1.4.3-5.8-2.5-4.3-20.1,10.1-42.6,13.9-64.8,14.9-6.6.3-13.2.4-19.9.4-3.2,0-3.3,5,0,5Z"/><path class="cls-1" d="M186,359.44c-3.7,3.5-7.5,7-11.2,10.5"/><path class="cls-1" d="M184.2,357.64c-3.7,3.5-7.5,7-11.2,10.5a2.42,2.42,0,0,0,0,3.5,2.51,2.51,0,0,0,3.5,0c3.7-3.5,7.5-7,11.2-10.5a2.42,2.42,0,0,0,0-3.5,2.61,2.61,0,0,0-3.5,0Z"/><path class="cls-1" d="M91.5,390.64c11.3-1.7,22.8-2.2,34.2-3s22.9-2.3,33.7-5.9,21.2-9.6,28.5-18.4"/><path class="cls-1" d="M92.2,393c27.3-4.1,56.7-.9,81.6-15a57.08,57.08,0,0,0,15.9-13,2.47,2.47,0,0,0-3.5-3.5c-17.3,20.7-46,22.6-71,24.3-8.1.6-16.3,1.2-24.3,2.4a2.48,2.48,0,0,0-1.7,3.1c.3,1.4,1.6,1.9,3,1.7Z"/><path class="cls-1" d="M90.6,394.84c16.5-4,33.6-4.5,50.4-6.8s34-6.5,47.4-16.9c.6-.5,1.2-1.1,1-1.8s-1.4-.8-2.1-.3a10.13,10.13,0,0,0-1.4,2c-.4.7-1.2,1.4-2,1.2"/><path class="cls-1" d="M91.3,397.24c16.2-3.9,32.8-4.5,49.3-6.7,14.6-1.9,29.3-5.2,42.2-12.7,1.8-1.1,3.6-2.2,5.3-3.4s4.1-2.7,3.9-5.2a3.69,3.69,0,0,0-4.8-3,4.7,4.7,0,0,0-2.5,1.9,7.46,7.46,0,0,0-.7,1.2c-.3.5-.3.3,0,.3-3.2-.1-3.2,4.9,0,5a4.3,4.3,0,0,0,3.7-1.9,4.62,4.62,0,0,0,.9-1.5c0-.1.2-.3.2-.4-.1.1-.3.1-.4.2a1.43,1.43,0,0,1-1.4-.8v-1.3c.1,0,.1-.1.2-.1l-.4.4c-.3.3-.7.5-1,.8-.6.4-1.1.8-1.7,1.2l-4.2,2.7a85.24,85.24,0,0,1-8,4,100.37,100.37,0,0,1-17.7,5.4c-13.3,2.9-26.9,3.7-40.3,5.2a190.43,190.43,0,0,0-23.8,3.9c-3.3.7-2,5.6,1.2,4.8Z"/><path class="cls-1" d="M93.4,396.44c5.8-.2,11.6-.2,17.3-.2,4.9,0,10.4.7,15-.9,4.4-1.6,8.9-1.9,13.6-2.5,5.9-.8,11.7-1.6,17.5-2.6a86.69,86.69,0,0,0,16-3.8,32.8,32.8,0,0,0,13.6-9"/><path class="cls-1" d="M93.4,398.94c6.8-.2,13.6-.4,20.3-.2a49,49,0,0,0,9.4-.3c3.1-.5,6-1.7,9.1-2.2,6.4-1.1,13-1.7,19.5-2.7s13.3-1.9,19.6-4,12.5-5.3,16.9-10.4a2.47,2.47,0,0,0-3.5-3.5c-8,9.2-21,11-32.4,12.8-6.5,1-13.1,1.8-19.6,2.7a32.47,32.47,0,0,0-4.3.8c-1.5.4-3,.9-4.5,1.3a33.65,33.65,0,0,1-8.4.6c-7.3-.2-14.7-.1-22.1.1-3.2.1-3.2,5.1,0,5Z"/><path class="cls-1" d="M137.5,395.74c-1.6-.1-3.1-.2-4.7-.2a83,83,0,0,0,23.2-3.4"/><path class="cls-1" d="M137.5,393.24c-1.6-.1-3.1-.2-4.7-.2v5a84.29,84.29,0,0,0,23.9-3.5c3.1-.9,1.8-5.7-1.3-4.8a86.36,86.36,0,0,1-22.6,3.3c-3.2,0-3.2,4.8,0,5,1.6.1,3.1.2,4.7.2a2.54,2.54,0,0,0,2.5-2.5,2.42,2.42,0,0,0-2.5-2.5Z"/><path class="cls-2" d="M92.9,146.44a2.3,2.3,0,0,0-1.4.4c-6.4,4.5-13.2,16-14,23.1l-.6,5a1.45,1.45,0,0,0,.2.7l4.6,5.4a65.73,65.73,0,0,1,7.4,10.9c4.1,8.7,4.9,9.4,8.7,8.4a10.21,10.21,0,0,0,3.6-1.6.76.76,0,0,0,.2-.5c.1-1.2.2-5.7.2-10.5,0-12.2,1.2-17.1,6-26.1,1.5-2.7,7.1-9.2,8.6-13.2a1.56,1.56,0,0,0-1.4-2.1H92.9Z"/><path class="cls-3" d="M133.7,149.34a23,23,0,0,1-6.9,8c-8.8,6.2-11,8.6-11.7,12.5l-.6,3.8h4.2c5.2,0,8.9-1.8,12.9-6.5,6.1-6.8,9.1-15.1,7.3-19.8C137.4,143.54,136.3,143.94,133.7,149.34Z"/><path class="cls-3" d="M91.4,211.24c-.8,2.1.2,4.5,1.9,4.5a4.37,4.37,0,0,0,2.7-1.5c1-1.2,1-1.8,0-3a4.37,4.37,0,0,0-2.7-1.5A2.39,2.39,0,0,0,91.4,211.24Z"/><path class="cls-4" d="M102.5,208.14l-.6.3-.4.4a1.38,1.38,0,0,0-.3.4c-.1.1-.1.3-.2.5s-.1.3,0,.5.1.2.2.3.3.1.4.2h.7a.85.85,0,0,0,.6-.2,4.17,4.17,0,0,1,.6-.2c.2-.1.3-.2.5-.3a2.19,2.19,0,0,0,.3-.5c.1-.3-.1-.6-.1-.7a.78.78,0,0,0-.4-.4,1.44,1.44,0,0,1-.3-.2c-.1,0-.2-.1-.3-.1s-.2-.1-.4-.1A.77.77,0,0,0,102.5,208.14Z"/><path class="cls-5" d="M96.2,219.94c.5,1.5,2.8,1.8,2.9.3,0-.6-.7-1.2-1.7-1.3C96.4,218.64,95.9,219,96.2,219.94Z"/><path class="cls-3" d="M106.7,228.84c-1.1,1.7.5,5,2.4,5,2.4,0,4.3-2.3,3.5-4.4C111.9,227.64,107.7,227.24,106.7,228.84Z"/><path class="cls-3" d="M93.5,247.64c-.2,0-.3.1-.5.2s-.3.2-.4.4a.52.52,0,0,0-.2.4,1.09,1.09,0,0,0,.1.5,1.07,1.07,0,0,0,.5.3,1.69,1.69,0,0,1,.5.2,4.33,4.33,0,0,0,.5.1,2.49,2.49,0,0,0,.8.1c.2,0,.3,0,.4-.1s.1-.5.1-.7a2.62,2.62,0,0,0-.5-.9,2.17,2.17,0,0,0-.7-.6A1.27,1.27,0,0,1,93.5,247.64Z"/><path class="cls-5" d="M98.2,239c-.3.6.1,1.3,1,1.6,1.9.8,3,0,2-1.5A1.62,1.62,0,0,0,98.2,239Z"/><path class="cls-6" d="M45.8,270c-6.5,9.5-12.5,23.2-15.6,35.7-2,7.8-2.3,26.2-.6,32.6,1.1,3.9,1.2,4,5.5,4,2.5,0,4.5-.1,4.5-.3s.9-5.1,2-11.1c3.3-18.3,9.4-37.3,16.1-50.8a40.38,40.38,0,0,0,2.9-6.7c0-.9-10.3-6.1-12.1-6.1C48.1,267.34,46.9,268.54,45.8,270Z"/><path class="cls-5" d="M90.1,240.74c-.3,0-.4.2-.6.3a1,1,0,0,0-.5.6,1.58,1.58,0,0,0,0,.7.69.69,0,0,0,.4.3,3.55,3.55,0,0,0,.9.4,1.73,1.73,0,0,0,1,.1.71.71,0,0,0,.6-.3.64.64,0,0,0,0-.6c0-.2-.2-.4-.4-.7L91,241C90.6,240.94,90.4,240.74,90.1,240.74Z"/><path class="cls-4" d="M88.4,224.14c-2.4,1.8-1.1,4.6,2.1,4.6,2,0,2.5-.5,2.5-2.4C93,223.44,90.8,222.44,88.4,224.14Z"/><path class="cls-6" d="M68.1,233.14c-5.5,4.8-5.4,5.4,1.8,7.6,3.4,1,4,.9,6.2-1.2,3.1-2.9,3.1-3.7-.3-7.7l-2.7-3.1Z"/><path class="cls-7" d="M52.6,243.64c-1.4,1.3-.9,8.5.8,12,2.6,5.5,11,9.3,24,11,4.6.5,7.2,1.7,12.9,5.6l7.3,4.8.4,11.3c.3,6.1.8,11.9,1.2,12.9.6,1.3-.1,1.7-3.6,2.3-8.7,1.4-12.1,3.8-28.9,20.6-17.1,17.1-22.6,21.1-33.9,25.1-3.6,1.2-6.7,2.4-6.9,2.5-.9.6,5.6,6.6,11.2,10.4,9,6,11.2,6.3,25.2,3.4s17.4-3,24.1-1.1c10.2,3,22.8,4.8,31.3,4.4,7.9-.4,9.6-.8,19.8-5.6,12.2-5.7,14.9-6.1,24.6-3.7,6.4,1.5,8.1,1.2,11.4-1.8,6.6-5.9,1.9-19.1-11.2-32.3-7.3-7.3-11.7-9.2-27.5-11.9-10.2-1.7-15.7-3.2-21.7-5.9-4.4-2-8.5-3.6-9.1-3.6-1.2,0-3.2-13-3.2-21.1,0-6.9,1.5-13.5,3.6-16.4,1.4-1.9,1.5-1.9,11.8.8,12.2,3.2,13.6,3.3,18.4,1,3.5-1.7,18.2-14.8,18.2-16.2,0-.7-10.4-2.7-19.2-3.8-5.1-.7-12.3,1.9-20.4,7.3-9.3,6.2-12.2,9.1-13.6,13.6-.6,2.1-1.4,3.8-1.8,3.8s-2.9-1.5-5.6-3.3c-4.1-2.9-5-4-6.3-9-3.2-11.7-10.3-16.8-24.1-17.5C57.1,243,53,243.14,52.6,243.64Z"/><path class="cls-8" d="M74.1,248.94c4.1,2.1,8.2,7.1,8.2,9.9,0,.9-.8.7-2.6-.7a9.78,9.78,0,0,0-3.8-2.1,3.92,3.92,0,0,1-2.4-1.2,6.57,6.57,0,0,0-3.4-1.3,21.64,21.64,0,0,1-4.8-1c-2.2-.7-2.3-.6-1.1.9a4.29,4.29,0,0,0,2.9,1.6c2.3,0,12.2,6,12.2,7.4,0,1-1.1,1.1-5.2.4-12-2.2-18.8-7.2-18.8-13.8v-3.3l7.3.5C67.3,246.54,71.3,247.44,74.1,248.94Z"/><path class="cls-8" d="M141.6,252.74c2.4.3,4.2,1.1,4.2,1.8,0,1.6-8.3,8.6-13,11-3.3,1.7-3.8,1.7-10.7,0-4-.9-7.1-2-6.8-2.5s2.6-1.1,5.2-1.5c4.9-.7,12.1-3.2,13.8-4.7.5-.4-1.3-.2-4,.7-5.3,1.5-16.5,3.1-16.5,2.3s8.1-5.9,11.9-7.4a17.5,17.5,0,0,1,7.6-.8C135.5,251.94,139.2,252.44,141.6,252.74Z"/><path class="cls-6" d="M27.4,352.94c.3-2.5,9.1-2.7,16.2-7.4,4.6-3,9.2-6,13.5-10.4,4.8-4.9,5.4-5.2,10.7-10.5,3.9-3.8,7-6.3,9.1-8.5,5.3-5.6,8.8-8.5,14.2-10.1,2.8-.9,7.6-2.7,13-.7,4.3,1.5,5.2,2.6,11.1,4.9,2.7,1,3.7,1.5,14.3,3.7,2.2.5,5.5,1.1,10.7,2.4,9.1,2.1,10.8,2.7,12.1,3.4a31.48,31.48,0,0,1,8.2,6.5,55.54,55.54,0,0,1,7.2,8.5,45.78,45.78,0,0,1,4.9,8.9c2,4.3,2.9,7.2,1.5,10.5a8.77,8.77,0,0,1-6.2,5.2c-2.6.5-3.2-1-8.9-1.8a33,33,0,0,0-6.4-.5,26.22,26.22,0,0,0-6.2,1.1,51,51,0,0,0-9.6,4.1c-8.6,3.6-8.4,3.8-12,4.6a30.5,30.5,0,0,1-9.5,1.1,90.78,90.78,0,0,1-12.8-1c-2.8-.5-6.8-1.1-11.9-2.3-6.4-1.5-5.9-1.7-9.3-2.1-4.3-.6-8-.6-15.3.9-6.5,1.3-7.7,2.2-11.9,2.4-5.1.2-8-.2-8.9-.5a29.6,29.6,0,0,1-6.9-3.6,32.67,32.67,0,0,1-5.4-4.4C30.4,354.84,27.3,353.84,27.4,352.94Z"/><path class="cls-6" d="M159,131.14c1.4,7.4-6.9,9.3-11.4,9.9-17.9,2.3-35.9,2.8-53.9,3.3-9.3.3-18.7.5-28,.1-5.7-.3-11.4-.9-16.8-3-3.8-1.5-9.8-6.5-6.2-11.8a11.51,11.51,0,0,1-3.2-8.7c.3-3.2,2.7-6.3,5.5-6.4a13.91,13.91,0,0,1-1-12.7,10.64,10.64,0,0,1,9.6-6.6,16.53,16.53,0,0,1,2.8-14.8,12.39,12.39,0,0,1,13-4.1,19.45,19.45,0,0,1,6.2-11.6c6-5.2,17.9-6.2,22.4,1.9a9.15,9.15,0,0,1,5.3-6,13,13,0,0,1,12.5,1.1,17.41,17.41,0,0,1,6.4,9.9,13.63,13.63,0,0,1,13,.5,16,16,0,0,1,7.3,12.2,24.21,24.21,0,0,1-.8,7.1c3.3.6,6.2,3.4,7.7,6.9a19.81,19.81,0,0,1,.9,11.3,9.56,9.56,0,0,1,7.2,6.7,11.43,11.43,0,0,1-2.1,10.3A5.86,5.86,0,0,1,159,131.14Z"/><path class="cls-9" d="M159,131.14c1.4,7.4-6.9,9.3-11.4,9.9q-15.45,2-30.9,2.4a7,7,0,0,0-.7-7.6c8.6-9,18.8-15.7,28-23.8,2.8-2.4,5.6-5.3,6.6-9.1-.5,2,.1,4.5-.3,6.6a9.56,9.56,0,0,1,7.2,6.7,11.43,11.43,0,0,1-2.1,10.3A6.19,6.19,0,0,1,159,131.14Z"/><path class="cls-8" d="M101,73.24c1-.4,2-1.1,2.9-.5s1.8,2.1,2.5,2.8c2.6,2.8,5.1,5.5,6.8,9a44.6,44.6,0,0,1,3.4,10.9c1.1,6.1,1.5,12.3,2.8,18.3l-9.3,5.4c1.3,1.5,2.7,3.3,2.4,5.4a4,4,0,0,1-1.2,2.3c-2.3,2.6-6.4,3.8-8.3.2a13.16,13.16,0,0,1-1.1-4,19.39,19.39,0,0,0-6.4,2.5c-.3.2-4.5,3.4-4.5,3.5-.6-.8-8.1-10.1-8.5-9.7a39,39,0,0,1-3.4,3.6,21.36,21.36,0,0,1-.9-2.7c-1.3-5.1-4.8-7.1-8.5-9.7a5.75,5.75,0,0,1-1.9-1.9,5,5,0,0,1,.1-3.6,23.94,23.94,0,0,1,2.9-5.2,77.32,77.32,0,0,1,8.6-11c3.9-4,8.4-7.1,12.8-10.3A50.17,50.17,0,0,1,101,73.24Z"/><path class="cls-3" d="M137,123.34c2.7-2.2,5.5-4.4,8.2-6.6,1.4-1.1,2.8-2.2,4.2-3.4.7-.6,1.4-1.1,2.1-1.7.2-.2,1.3-1.2,1.4-1.1a7.43,7.43,0,0,0-2.7-1c.3,0,.5-4.4.4-4.8-.2-1.8-.2-4.5-1.6-5.6a8.51,8.51,0,0,0-4.6-1.6,96.07,96.07,0,0,0-16.1-1c-2.7.1-5.5.3-8.2.6-.6.1-6.8.6-6.9,1a55.74,55.74,0,0,1-3.8,10.6c2.7.5,6.2,2.3,7.6,5.1,1.5,3,1.3,7.2.7,10.5a55.09,55.09,0,0,1-3.2,10.7,10.41,10.41,0,0,1,2.2,2.5c3.7-3,7.5-5.9,11.4-8.6a6.08,6.08,0,0,0,4.7,3.7,5.17,5.17,0,0,0,5-3A5.73,5.73,0,0,0,137,123.34Z"/><path class="cls-10" d="M103.2,60.54a13,13,0,0,1,12.5,1.1,17.41,17.41,0,0,1,6.4,9.9,13.63,13.63,0,0,1,13,.5,16,16,0,0,1,7.3,12.2,24.21,24.21,0,0,1-.8,7.1c3.3.6,6.2,3.4,7.7,6.9a11.22,11.22,0,0,1,.8,2.6,50.75,50.75,0,0,0-13.4-2.2,7.27,7.27,0,0,1-1.6,6.4,4.6,4.6,0,0,1-5.7.9,6,6,0,0,1-2.5-5.9,131.12,131.12,0,0,0-14-.6l.9-5.1a6.36,6.36,0,0,1-4.2,1.1,3.83,3.83,0,0,1-3.1-3,4.93,4.93,0,0,1,1.5-4.3,9.48,9.48,0,0,1,3.9-1.9c-2-3.7-4.7-7.6-8.5-8.1-2.7-.4-5.4,1.2-8.1.8a5.74,5.74,0,0,1-4.3-3,6.06,6.06,0,0,1,0-5.7c1.3-2.2,4.5-3.3,6.5-3.6.2,0,.3-.2.4-.4A11,11,0,0,1,103.2,60.54Z"/><path class="cls-4" d="M80,92.24a.1.1,0,0,0-.1-.1,52.73,52.73,0,0,0-7.2,9.5c-2.2,3.7-4.1,6.2-8,7.3a9,9,0,0,1-4.3.4c-2.6-.6-4.5-3-5.5-5.8a27,27,0,0,1-1.2-7c-.1-1.9-.8-3.7-.9-5.6a16,16,0,0,1,3.4-10.5,12.39,12.39,0,0,1,13-4.1,19.45,19.45,0,0,1,6.2-11.6c6.8-5.8,19.5-5.8,23.1,3.2-1.4,0-3.2.1-4.2,1.3a4.11,4.11,0,0,0,1.1,5.9,4.15,4.15,0,0,0,5.4-2c.7,1.6,1.4,3.3,2.1,4.9a85.4,85.4,0,0,0-15.7,9.1,6.09,6.09,0,0,1,2.1,6.3,4.86,4.86,0,0,1-5,3.6C82,96.64,81,94.44,80,92.24Z"/><path class="cls-3" d="M83.9,131.74a5.27,5.27,0,0,1-2,4.6c-1.8,1.3-3.5.5-5.1-.7.3.2-2.3,8.1-2.3,9H70.3c-1.5,0-3.1-.1-4.6-.2-5.7-.3-11.4-.9-16.8-3-3.8-1.5-9.8-6.5-6.2-11.8a11.51,11.51,0,0,1-3.2-8.7c.3-3.2,2.7-6.3,5.5-6.4a13.91,13.91,0,0,1-1-12.7,11.56,11.56,0,0,1,6.4-6.1c1.5-.5,2.7-.8,4-.1a26.08,26.08,0,0,1,4.7,3.5c-1.7.9-2.3,3.6-1.4,5.4a3.83,3.83,0,0,0,4.3,2.1c1.6-.6,3.1-3.1,3.8-4.8,2.8,3.2,6.2,6.1,9.2,9.1a4.87,4.87,0,0,1,4.8-2.4c4.4.7,5.4,7.4,1.8,10.1a13.15,13.15,0,0,1,2.5,2.2c-1.1,2.1-2.2,4.1-3.3,6.2.2-.3,1.7,1.3,1.9,1.5a5.36,5.36,0,0,1,1.1,2.7A.75.75,0,0,1,83.9,131.74Z"/><path class="cls-11" d="M107.4,134.54a7.26,7.26,0,0,1,7.4.4c2.2,1.6,3.7,5.4,2.3,8.2"/><path class="cls-11" d="M140.9,122.84a4.72,4.72,0,0,1,1.4,3.1,21.66,21.66,0,0,1-.1,3.6,6.27,6.27,0,0,1,5.7,3.7,8,8,0,0,1-.5,7.5"/><path class="cls-11" d="M148.9,126.44c3.3-1.5,8.3-.6,9.8,3.5"/><path class="cls-11" d="M138.5,116.64a4.66,4.66,0,0,0-2.5-2.3,6.43,6.43,0,0,0-6,.7c-.4-3.2-3.1-5.7-5.5-7.1a7.6,7.6,0,0,0-8.2.1"/><path class="cls-11" d="M147.5,94.94c-4.2-4.7-10.3-5.2-15.6-2.9"/><path class="cls-11" d="M127.8,81.54a7.08,7.08,0,0,0-5.1,3.4,13.36,13.36,0,0,0-5.8-10.1,14.75,14.75,0,0,0-10.6-2.2"/><path class="cls-11" d="M89.6,77.24a12.1,12.1,0,0,0-9,3.8,16.32,16.32,0,0,0-4.3,9.8c-4.3-.2-8.5,3.6-9.4,8.5"/><path class="cls-11" d="M65,84.84a12,12,0,0,1,4.6-7.1,9.16,9.16,0,0,1,7.7-1.2"/><path class="cls-11" d="M114.9,111.14c-6.4-5-14.8-2.6-20.2,3"/><path class="cls-11" d="M62.3,113.84a9.89,9.89,0,0,0,.3,5.9c-3.1,1.4-4.9,5.4-4.8,9.2A16.61,16.61,0,0,0,61.9,139"/><path class="cls-11" d="M47.8,123.14a9.09,9.09,0,0,1,.1-7.4,7.26,7.26,0,0,1,5.4-4.1"/><path class="cls-12" d="M63,1C23.5,3.54.5,9,.5,16a15.46,15.46,0,0,0,1.6,5c1.2,2.4,1.5,4.6,1,8.8-.4,3.1-1.1,6.1-1.6,6.6s-1,2.9-1,5.2c0,3.3.5,4.5,2.4,5.7,2.3,1.6,2.4,2,2.5,15.9.1,47.1,21.8,87.9,62.6,118.4,8.3,6.1,11,8.9,12.4,12.7,1.6,4.2,1.3,7.6-1,12.5-1.8,3.6-4.9,6.5-17.3,15.7-18.7,13.9-26.9,21.4-35,31.9-10.4,13.5-15.7,24.5-19.6,40.6-3,12.3-3.3,36.6-.6,50.2,1.6,8.3,1.6,8.9-.1,12-1.1,2.2-1.7,5.6-1.8,9.8,0,13.3,6.5,20.4,24.2,26,45.8,14.7,136.2,9.9,156.1-8.4,6.7-6,9.2-18.6,5.4-27-1.7-3.7-1.7-4.4,0-14,2.4-13.9,2.3-33.5-.1-45.1-6.5-30.5-20.8-50.4-54.3-75.3-15-11.2-17-13.1-19.3-18.6-3.4-8-.2-13.7,12.8-23.4,40.7-30.2,63.2-73.5,62.6-120.8-.1-10.7,0-11.2,2.5-13.7s2.6-2.8,2.6-17c0-17-.3-17.6-9.3-20.7-6.5-2.3-24.1-5.4-39.2-7C135.7.64,79.3-.06,63,1Zm91.4,8.4c12.9,1.7,23.9,4.1,25.6,5.7,1.5,1.4-.5,2.7-6.8,4.3-27.4,7.2-115.4,7.8-147.7,1.1-10.5-2.2-13.5-3.4-11.8-5.1,2.7-2.7,24.8-6.5,45.3-7.8C74.8,6.64,142.5,7.94,154.4,9.44Zm29.5,1.5c12.1,3.4,12.4,6.5.9,10.1-8.2,2.5-11.1,2.5-5.5,0,7.2-3.3,6.9-7.2-.9-10.2C172.5,8.54,175.5,8.64,183.9,10.94ZM10.3,14c-1,1.6-1,2.4,0,4.1,1.8,2.8,1.3,3-2.7,1.1-4.5-2.2-4.9-3.7-1.4-5.6C10.3,11.44,11.8,11.54,10.3,14Zm182.1,30.6c-3.2,3.9-29.1,8.5-57.9,10.3-48.6,3.1-112-1.2-126.3-8.5-3.7-2-3-2.6,1.4-1.4,1.8.6,11.5,2.4,21.4,4.1,14.5,2.5,21.8,3.2,37.5,3.6,10.7.2,21.5,0,24-.4,3.6-.7.7-1.1-14-1.6-28.8-1.1-56.4-5.1-67-9.6-2.3-1-2.3-1.1,1-.7,1.9.2,10,1.5,18,2.9,20.2,3.6,37.4,5,51.6,4.4,21-.9,17.9-2.3-6.2-3-23.3-.6-36.6-2.2-53.2-6.2-9.5-2.3-15.4-4.4-12.6-4.5.6,0,6.5,1.1,13,2.4,19.8,4,37.6,5.9,54.4,5.8,8.5,0,17.1-.5,19-1,2.8-.8,1-1-8.7-1.1A349.71,349.71,0,0,1,38,36c-12.1-2-27.7-6.1-25.8-6.7.6-.2,7.1.7,14.4,2.1,26.2,5,55.7,7,68.9,4.7,5.2-1,7-.8-15.5-1.7-16.3-.6-39.3-3.1-46.5-4.9L28,28.14l5.6.5c3,.3,9.3.9,14,1.5,14.5,1.6,67,2.2,86.4,1,21.9-1.4,43.5-4.4,52.4-7.4l6.6-2.2.3,10.9C193.5,39.54,193.2,43.74,192.4,44.64Zm-3,15.9A148.08,148.08,0,0,1,188.1,78c-5.2,41.6-25.5,75.1-61.6,101.9-8.9,6.6-10.4,8.2-12.6,13.8-4,10.2,0,16.9,17.9,30.1,18.1,13.4,27.4,21.8,35.1,31.4a103.27,103.27,0,0,1,22.6,64.9c0,10.1-2.4,28.6-4.4,33.3-4.8,11.4-31.4,22.6-61,25.6-15,1.6-49.6.8-62.1-1.4-20.6-3.6-36.9-10.2-45.4-18.5-4.3-4.2-4.9-5.4-6-11.1-5.2-29-2.6-53.4,8.1-74.7,8.4-16.6,20.4-29.8,41.8-45.6,21.7-16.1,24.6-19.6,23.8-29.2-.6-7.6-3.6-11.4-16.2-20.9C30,149,8.5,107.84,8.5,63.24c0-9.1.3-12.2,1.3-12.2.6,0,3.9.7,7.2,1.4,23.9,5.7,79.4,8.3,119.7,5.6,16.5-1.1,39.8-4.2,46.9-6.3,4.1-1.2,4.4-1.2,5.1.7A55.93,55.93,0,0,1,189.4,60.54ZM15.8,362.64c10.6,9.5,32.1,16.9,56.2,19.4,16.2,1.7,52.7.8,65.5-1.5,19.1-3.5,36.4-10.6,45.1-18.6a48.14,48.14,0,0,1,4.5-3.9,16.27,16.27,0,0,1,1.3,3.1c2.5,7.1.2,15.7-5.5,21.1C165.6,398.44,86,404,38.7,392.44c-11.8-2.9-20.5-6.4-24-9.7-2.4-2.2-6.7-9.7-5.6-9.7a41,41,0,0,1,5.2,3.9c9.7,8.1,25.1,14,42.2,16.1,9.8,1.2,25.5,1.2,32,.1,4.2-.8,4-.9-3-1-8.1-.1-29.6-2.6-34.5-3.9-1.7-.5,5-.7,16-.4,10.6.2,20.8-.1,23-.6,3.4-.8,2.2-1-7.5-1.1-12.1-.1-27.4-2-37.5-4.7-14.5-3.9-35.5-16.7-35.5-21.7C9.5,357.24,10.2,357.54,15.8,362.64Z"/></svg>